<?xml version="1.0" standalone="no"?><!DOCTYPE svg PUBLIC "-//W3C//DTD SVG 1.1//EN" "http://www.w3.org/Graphics/SVG/1.1/DTD/svg11.dtd"><svg t="1716388687506" class="icon" viewBox="0 0 1024 1024" version="1.1" xmlns="http://www.w3.org/2000/svg" p-id="6620" xmlns:xlink="http://www.w3.org/1999/xlink" width="128" height="128"><path d="M496 512l-163.36 185.024L208.96 780.48a74.464 74.464 0 0 1-111.04-32.96 74.464 74.464 0 0 1 38.848-96.96A74.432 74.432 0 0 1 64 576c0-40.48 32-73.28 72.448-74.816A74.752 74.752 0 0 1 98.24 404.48a74.592 74.592 0 0 1 95.552-41.12A74.752 74.752 0 0 1 195.2 259.2a74.752 74.752 0 0 1 104.32-1.216 74.496 74.496 0 0 1 40.96-95.744 74.624 74.624 0 0 1 96.96 38.56A74.432 74.432 0 0 1 512 128c40.48 0 73.28 32 74.816 72.448A74.752 74.752 0 0 1 683.52 162.24a74.72 74.72 0 0 1 41.12 95.552A74.752 74.752 0 0 1 828.8 259.2c28.704 28.704 29.12 75.104 1.248 104.32a74.592 74.592 0 0 1 96.032 40.96 74.464 74.464 0 0 1-38.848 96.96A74.432 74.432 0 0 1 960 576c0 40.48-32 73.28-72.448 74.816a74.752 74.752 0 0 1 38.208 96.704 74.752 74.752 0 0 1-97.6 40.32 96.416 96.416 0 0 1-16.32-9.28l-120.736-78.784L496 512z" fill="#00D26A" p-id="6621"></path><path d="M520.32 386.88a207.872 207.872 0 0 0-216 199.68c-1.6 40.64 8.64 78.72 27.2 111.68L512 576v226.56c111.04 0 203.2-87.68 207.68-199.68a207.616 207.616 0 0 0-199.36-216z" fill="#C3EF3C" p-id="6622"></path><path d="M478.08 216.896c5.472-13.408 17.952-14.336 33.28-14.336 15.36 0 29.088 0.96 34.56 14.336a36.8 36.8 0 1 0-67.808 0zM343.04 256.832c0.16-14.24 11.008-11.136 24.96-16.832 14.4-6.08 27.84-18.88 38.08-8.64v-0.32a36.8 36.8 0 1 0-63.04 25.792zM282.176 298.368L281.92 298.24c-13.12-5.76-23.04 6.56-33.92 17.44-10.816 10.784-19.488 16.896-14.176 30.272a36.8 36.8 0 1 1 48.352-47.584zM167.36 470.08h-0.32a36.8 36.8 0 1 1 25.792-63.04c-14.24 0.16-11.136 11.04-16.832 24.96-5.76 14.08-18.88 27.52-8.64 38.08zM152.896 542.08c-13.408 5.472-8.896 18.56-8.896 33.92 0 15.36-4.48 28.448 8.896 33.92a36.8 36.8 0 1 1 0-67.808zM192.832 744.96a36.8 36.8 0 1 1-25.792-63.04h0.32c-10.24 10.24-6.08 19.2 0 33.6 5.696 13.92 11.232 29.28 25.472 29.44zM885.44 612.8a36.8 36.8 0 1 0-14.336-70.72c13.408 5.472 8.896 18.56 8.896 33.92 0 15.36 4.48 28.448-8.896 33.92 4.384 1.856 9.248 2.88 14.336 2.88zM893.76 433.28a36.8 36.8 0 0 1-36.8 36.8h-0.32c10.24-10.24-2.56-23.68-8.64-38.08-5.696-13.92-2.592-24.768-16.832-24.96a36.8 36.8 0 0 1 62.592 26.24zM790.048 346.016a36.8 36.8 0 1 0-48.064-48.064l0.096-0.032c13.12-5.44 19.552 3.2 30.432 14.08 10.88 10.88 23.008 20.8 17.568 33.92l-0.032 0.096zM617.92 231.36c10.56-10.24 22.72-5.76 36.8 0 13.952 5.696 26.048 11.232 26.24 25.472a36.8 36.8 0 1 0-63.04-25.792v0.32zM856.96 755.52a36.8 36.8 0 0 0 0-73.6h-0.32c10.24 10.56 5.76 19.52 0 33.6-5.696 13.92-11.232 29.28-25.472 29.44 6.624 6.528 15.744 10.56 25.792 10.56z" fill="#FFF478" p-id="6623"></path><path d="M512 194.24c-15.36 0-28.48 9.28-33.92 22.72 5.44 13.44 18.88 22.72 33.92 22.72 15.04 0 28.48-9.28 33.92-22.72-5.44-13.44-18.56-22.72-33.92-22.72zM365.76 223.36c-14.08 5.76-22.72 19.52-22.72 33.92 10.24 10.24 25.92 13.76 40.32 8 14.08-5.76 22.72-19.52 22.72-33.92-10.24-10.24-25.92-14.08-40.32-8zM233.92 346.24c-5.44-13.44-2.88-29.44 8-40.32 10.88-10.88 26.88-13.44 40-7.68a36.8 36.8 0 0 1-48 48zM159.36 429.76c-5.76 14.08-2.24 29.76 8 40.32 14.4 0 28.16-8.64 33.92-22.72 5.76-14.08 2.24-29.76-8-40.32-14.4 0-28.16 8.64-33.92 22.72zM152.96 609.92c-13.44-5.44-22.72-18.56-22.72-33.92 0-15.36 9.28-28.48 22.72-33.92 13.44 5.44 22.72 18.88 22.72 33.92 0 15.04-9.28 28.48-22.72 33.92zM159.36 722.24c5.76 14.08 19.52 22.72 33.92 22.72 10.24-10.24 13.76-25.92 8-40.32-5.76-14.08-19.52-22.72-33.92-22.72-10.24 10.24-14.08 25.92-8 40.32zM871.04 542.08c13.44 5.44 22.72 18.56 22.72 33.92 0 15.36-9.28 28.48-22.72 33.92-13.44-5.44-22.72-18.88-22.72-33.92 0-15.04 9.28-28.48 22.72-33.92zM864.64 429.76c-5.76-14.08-19.52-22.72-33.92-22.72-10.24 10.24-13.76 25.92-8 40.32 5.76 14.4 19.52 22.72 33.92 22.72 10.24-10.24 14.08-25.92 8-40.32zM742.08 297.92a36.8 36.8 0 0 1 48 48 36.8 36.8 0 0 1-48-48zM658.24 223.36a37.44 37.44 0 0 0-40.32 8c0 14.4 8.64 28.16 22.72 33.92 14.08 5.76 29.76 2.24 40.32-8 0-14.4-8.64-28.16-22.72-33.92zM856.64 681.92c10.24 10.56 13.76 26.24 8 40.32-5.76 14.08-19.52 22.72-33.92 22.72a37.44 37.44 0 0 1-8-40.32c5.76-14.08 19.52-22.72 33.92-22.72z" fill="#00A6ED" p-id="6624"></path><path d="M384 960v-7.04c0-13.76 11.2-24.96 24.64-24.96h77.76l25.6-128 16-16 16 16-25.6 128h32l25.6-128 16-16 16 16-25.6 128h64.64c13.76 0 24.96 11.2 24.96 24.96V960h-288z" fill="#FCD53F" p-id="6625"></path><path d="M427.52 320l-24.32 138.56 1.6-10.56c-6.72 36.864-35.2 234.88-35.2 234.88A101.856 101.856 0 0 0 470.4 800h278.08c9.6 0 16.32-9.6 13.12-18.56a148.224 148.224 0 0 0-12-26.24l-215.68-122.24c-16.32-11.2-22.24-65.92-22.24-87.04v-150.4a74.24 74.24 0 0 0-10.976-39.52l3.68-14.112-15.648-0.768c-13.536-13.056-32-21.12-52.256-21.12h-8.96z" fill="#00A6ED" p-id="6626"></path><path d="M488.64 341.024V300.8c0-5.12 4.48-8.96 9.6-8 27.84 4.16 49.6 25.92 53.76 53.76 0.96 5.12-2.88 9.6-8 9.6h-43.2a75.552 75.552 0 0 0-12.16-15.136zM403.2 458.56l24.32-138.56h-83.52c-9.28 0-13.76 10.88-7.68 17.6l51.2 54.72c14.08 15.04 20.48 35.52 17.28 55.68l-1.6 10.56zM481.28 368.64a16.64 16.64 0 1 1-33.28 0 16.64 16.64 0 0 1 33.28 0z" fill="#1C1C1C" p-id="6627"></path><path d="M703.36 705.92l-163.84-108.48c-0.32 0-0.32-0.32-0.64-0.32-16.32-11.2-27.2-30.08-27.2-51.2v130.56a79.36 79.36 0 0 0 79.36 79.36h158.72c-11.2-19.84-26.88-37.12-46.4-49.92z" fill="#0074BA" p-id="6628"></path></svg>